<svg viewBox="0 0 39.021 38.6386" xmlns="http://www.w3.org/2000/svg" xmlns:xlink="http://www.w3.org/1999/xlink" width="39.020996" height="38.638641" fill="none" customFrame="#000000">
	<path id="Icon" d="M1.5 1.5L5.79851 1.5L7.83582 9.02239L12.7836 27.2911L34.2761 24.6045L37.5 9.02239L7.83582 9.02239M16.6875 37.1386C15.1342 37.1386 13.875 35.8794 13.875 34.3261C13.875 32.7728 15.1342 31.5136 16.6875 31.5136C18.2408 31.5136 19.5 32.7728 19.5 34.3261C19.5 35.8794 18.2408 37.1386 16.6875 37.1386ZM31.6875 37.1386C30.1342 37.1386 28.875 35.8794 28.875 34.3261C28.875 32.7728 30.1342 31.5136 31.6875 31.5136C33.2408 31.5136 34.5 32.7728 34.5 34.3261C34.5 35.8794 33.2408 37.1386 31.6875 37.1386Z" fill-rule="evenodd" stroke="rgb(255,255,255)" stroke-linecap="round" stroke-width="3.000000" />
</svg>
