<svg viewBox="0 0 20.8457 20.8299" xmlns="http://www.w3.org/2000/svg" width="20.845703" height="20.829895"
     fill="currentColor">
	<path id="Vector" d="M20.553 19.0738L16.6884 15.2405C18.1885 13.3701 18.915 10.996 18.7185 8.60644C18.5219 6.21686 17.4173 3.9934 15.6317 2.39326C13.8461 0.793117 11.5153 -0.0620876 9.11857 0.00349616C6.72181 0.0690799 4.44127 1.05047 2.74588 2.74586C1.05048 4.44126 0.0690952 6.7218 0.00351142 9.11855C-0.0620723 11.5153 0.793132 13.8461 2.39328 15.6317C3.99342 17.4172 6.21688 18.5219 8.60646 18.7184C10.996 18.915 13.3701 18.1885 15.2405 16.6884L19.0739 20.5218C19.1707 20.6194 19.2859 20.6969 19.4128 20.7498C19.5398 20.8027 19.6759 20.8299 19.8134 20.8299C19.951 20.8299 20.0871 20.8027 20.214 20.7498C20.341 20.6969 20.4562 20.6194 20.553 20.5218C20.7408 20.3275 20.8457 20.0679 20.8457 19.7978C20.8457 19.5277 20.7408 19.2681 20.553 19.0738L20.553 19.0738ZM9.39677 16.6884C7.95462 16.6884 6.54485 16.2608 5.34574 15.4596C4.14663 14.6583 3.21204 13.5195 2.66015 12.1872C2.10826 10.8548 1.96386 9.38867 2.24521 7.97422C2.52656 6.55978 3.22103 5.26053 4.24078 4.24077C5.26054 3.22101 6.55979 2.52655 7.97424 2.2452C9.38868 1.96385 10.8548 2.10825 12.1872 2.66013C13.5196 3.21202 14.6584 4.14662 15.4596 5.34572C16.2608 6.54483 16.6884 7.9546 16.6884 9.39676C16.6884 11.3306 15.9202 13.1853 14.5528 14.5527C13.1853 15.9202 11.3306 16.6884 9.39677 16.6884L9.39677 16.6884Z" fill="rgb(255,255,255)" fill-opacity="0.649999976" fill-rule="nonzero" />
</svg>
