<svg viewBox="0 0 18 20" xmlns="http://www.w3.org/2000/svg" width="18.000000" height="20.000000" fill="currentColor">
	<path id="Icon" d="M5 19C3.89543 19 3 18.0519 3 16.8824L3 5.23529C3 4.65052 3.44772 4.17647 4 4.17647L14 4.17647C14.5523 4.17647 15 4.65052 15 5.23529L15 16.8824C15 18.0519 14.1046 19 13 19L5 19ZM1 4.17647L17 4.17647M11 1C11.5523 1 12 1.47405 12 2.05882L12 3.11765C12 3.70242 11.5523 4.17647 11 4.17647L7 4.17647C6.44772 4.17647 6 3.70242 6 3.11765L6 2.05882C6 1.47405 6.44772 1 7 1L11 1ZM7 14.7647L7 8.41177M11 14.7647L11 8.41177" fill-rule="evenodd" stroke="rgb(255,255,255)" stroke-linecap="round" stroke-linejoin="round" stroke-width="2.000000" />
</svg>
