<svg viewBox="0 0 88 88" xmlns="http://www.w3.org/2000/svg" xmlns:xlink="http://www.w3.org/1999/xlink" width="88.000000" height="88.000000" fill="none" customFrame="#000000">
	<path id="Icon" d="M44 34C52.2843 34 59 27.2843 59 19C59 10.7157 52.2843 4 44 4C35.7157 4 29 10.7157 29 19C29 27.2843 35.7157 34 44 34ZM44 50.9841C17.1429 50.9841 4 63.737 4 79.4684C4 81.9711 5.82598 84 8.07844 84L79.9216 84C82.174 84 84 81.9711 84 79.4684C84 63.737 70.8571 50.9841 44 50.9841Z" fill="rgb(255,255,255)" fill-rule="evenodd" />
	<path id="Icon" d="M8.07843 84C5.82598 84 4 81.9711 4 79.4684C4 63.737 17.1429 50.9841 44 50.9841C70.8571 50.9841 84 63.737 84 79.4684C84 81.9711 82.174 84 79.9216 84L8.07843 84ZM44 34C35.7157 34 29 27.2843 29 19C29 10.7157 35.7157 4 44 4C52.2843 4 59 10.7157 59 19C59 27.2843 52.2843 34 44 34Z" fill-rule="evenodd" stroke="rgb(255,255,255)" stroke-width="8.000000" />
</svg>
