<svg viewBox="0 0 39 39" xmlns="http://www.w3.org/2000/svg" width="39.000000" height="39.000000" fill="none">
	<path id="Icon" d="M19.5 37.5C9.55887 37.5 1.5 29.4411 1.5 19.5C1.5 9.55887 9.55887 1.5 19.5 1.5C29.4411 1.5 37.5 9.55887 37.5 19.5C37.5 29.4411 29.4411 37.5 19.5 37.5ZM19.5005 7.125C15.9523 7.125 13.0533 9.93084 13.0533 13.3649C13.0533 16.799 15.9523 19.6048 19.5005 19.6048C23.0487 19.6048 25.9478 16.799 25.9478 13.3649C25.9478 9.93084 23.0488 7.125 19.5005 7.125ZM7.125 33C7.98969 32.0316 12.0395 27.575 13.2263 27.575L25.7745 27.575C27.4943 27.575 31.0049 31.2692 31.875 32.5714" fill-rule="evenodd" stroke="currentColor" stroke-width="3.000000" />
</svg>
